<svg id="eJbBNGqkXhI1" xmlns="http://www.w3.org/2000/svg" xmlns:xlink="http://www.w3.org/1999/xlink" viewBox="0 0 1920 1080" shape-rendering="geometricPrecision" text-rendering="geometricPrecision"><path d="M1098.319673,-13.278689h8.852465q-130.573778-303.19672,55.327868,33.196723t-179.262295,1071.147541l362.95082-772.37705-110.655738-334.180328l214.672132,497.950819-343.032787,606.393443L1505.532793,493.52459L1330.696728,0q276.639344,551.065575,276.639344,553.278689t-418.278688,537.786885l497.950819-575.409836L1476.762302,0l278.852459,504.590164-449.262295,590.901639l382.868852-393.934426l154.918033-243.442623-305.409836-471.393443l382.868852,369.590164L1920.000006,540l-465.368852,544.42623l270-219.098361l205.819672-230.163935-.000001-351.885245L1649.38525,0l281.065573,168.196721l6.639343,650.655738-382.868853,270" fill="none" stroke="#3f5787" stroke-width="3.84"/></svg>
